# xmcd CD database file
#
# Track frame offsets:
#	150
#	24192
#	40265
#	56137
#	67762
#	88725
#	124630
#	153592
#	168267
#	193360
#	217210
#	241165
#	263380
#	275400
#
# Disc length: 4041 seconds
#
# Revision: 0
# Processed by: cddbd v1.5.1PL2 Copyright (c) Steve Scherf et al.
# Submitted via: CDex 1.51
#
DISCID=bf0fc70e
DTITLE=オムニバス - Jazz al Cafe
DYEAR=2002
DGENRE=Jazz
TTITLE0=Olieve's Dream／鳥山雄司
TTITLE1=Tequila Toast／松原正樹
TTITLE2=Zig-Zag／今剛
TTITLE3=Miura Wind／パラシュート
TTITLE4=Stranger In The Mirror／鳥山雄司
TTITLE5=Midnight Song／中村照夫
TTITLE6=Been／松原正樹
TTITLE7=Aresa Koresa／パラシュート
TTITLE8=Can't We Be Friends／トライフォース
TTITLE9=Fiesta En Los Andes／KAZU
TTITLE10=A Taste Of Paradise／鳥山雄司
TTITLE11=That's Cool／松原正樹
TTITLE12=Baby Elephant Walk／パラシュート
TTITLE13=S.O.B.A.／鳥山雄司
EXTD=YEAR: 2002
EXTT0=
EXTT1=
EXTT2=
EXTT3=
EXTT4=
EXTT5=
EXTT6=
EXTT7=
EXTT8=
EXTT9=
EXTT10=
EXTT11=
EXTT12=
EXTT13=
PLAYORDER=
